<?xml version="1.0" encoding="UTF-8"?>
<svg width="210mm" height="297mm" version="1.1" viewBox="0 0 210 297" xmlns="http://www.w3.org/2000/svg" xmlns:cc="http://creativecommons.org/ns#" xmlns:dc="http://purl.org/dc/elements/1.1/" xmlns:osb="http://www.openswatchbook.org/uri/2009/osb" xmlns:rdf="http://www.w3.org/1999/02/22-rdf-syntax-ns#" xmlns:xlink="http://www.w3.org/1999/xlink">
<defs>
<linearGradient id="a" x1="12.881" x2="200.92" y1="43.367" y2="228.93" gradientTransform="matrix(.96845 0 0 .97736 1.9756 5.7133)" gradientUnits="userSpaceOnUse">
<stop stop-color="#ffd591" offset="0"/>
<stop stop-color="#9a5f00" offset=".35874"/>
<stop stop-color="#9a5f00" offset=".70013"/>
<stop stop-color="#ffd591" offset=".89687"/>
<stop stop-color="#9a5f00" offset="1"/>
</linearGradient>
</defs>
<metadata>
<rdf:RDF>
<cc:Work rdf:about="">
<dc:format>image/svg+xml</dc:format>
<dc:type rdf:resource="http://purl.org/dc/dcmitype/StillImage"/>
<dc:title/>
</cc:Work>
</rdf:RDF>
</metadata>
<path d="m96.533 231.68c-5.5945-0.60667-6.871-0.84107-13.436-2.4672-8.4045-2.0818-17.193-5.811-25.143-10.669-19.731-12.057-34.881-33.077-41.053-56.961-2.0366-7.8801-3.1442-18.586-2.6655-25.764 0.6521-9.778 1.5906-15.47 3.7646-22.831 2.9554-10.007 9.126-22.049 15.399-30.054 11.29-14.405 25.562-24.689 42.761-30.812 7.0294-2.5025 16.667-4.5611 23.086-4.9311 2.9771-0.1716 3.2441-0.14411 3.5073 0.36104 0.1567 0.30073 0.76848 13.168 0.94312 17.056 0.28502 6.3472 0.27647 7.1117-0.0836 7.4751-0.27735 0.2799-1.7694 0.5845-4.8359 0.98724-8.8234 1.1588-12.998 2.2967-20.073 5.4705-11.182 5.0169-21.092 13.604-27.837 24.121-3.8682 6.0319-5.9646 10.319-7.8108 15.974-2.0775 6.3631-2.8457 11.208-3.0842 19.454-0.27458 9.4908 1.2243 18.069 4.5408 25.989 3.9355 9.3972 7.824 15.44 14.209 22.078 5.1715 5.3774 8.5182 8.0146 14.968 11.794 6.0707 3.5577 10.28 5.2743 17.45 7.1166 6.2815 1.6141 14.882 2.384 20.435 1.8294 8.5956-0.8585 14.936-2.4636 21.667-5.4852 8.5217-3.8254 14.523-7.989 21.198-14.706 9.248-9.3066 15.057-20.34 17.768-33.746 0.94635-4.6805 1.639-15.309 1.0352-15.885-0.12974-0.12373-9.5181-0.35863-20.863-0.522-43.563-0.62728-47.249-0.72162-50.481-1.2918-4.8369-0.85344-7.8334-2.0674-12.023-4.8707-6.4543-4.3185-10.86-11.107-12.57-19.367-0.67896-3.2812-0.69401-5.4237-0.03961-5.6333 0.26215-0.084 7.3247 0.0228 15.694 0.23711 16.792 0.43011 36.189 0.83579 55.575 1.1623 13.761 0.23178 22.354 0.58181 27.667 2.3255 9.6227 3.1582 18.197 8.3289 20.871 18.149 1.3333 4.8964 1.5712 7.1812 1.3619 13.077-0.22072 6.216-0.81367 12.605-1.4495 15.619-0.23427 1.1103-0.70039 3.3166-1.0358 4.9027-1.6291 7.7038-4.9869 16.276-9.8284 25.09-3.5321 6.4308-9.9672 14.746-15.951 20.61-8.4365 8.2688-20.23 15.604-31.917 19.851-8.4438 3.0685-12.975 4.1856-21.432 5.2833-4.3331 0.56241-15.027 0.55326-20.289-0.0173zm-16.085-53.959c-3.6196-0.0729-3.9224-0.1167-4.1812-0.60477-0.58065-1.0949 0.75531-6.7382 2.6048-11.003 2.662-6.1383 7.698-11.482 13.678-14.513 4.3813-2.2208 8.2016-3.0434 15.305-3.296 5.2348-0.18612 30.874 0.2274 31.522 0.50839 1.3454 0.58338-0.25748 8.1144-2.808 13.193-3.9501 7.8652-11.423 13.447-20.752 15.503-1.5762 0.34718-3.9973 0.39789-16.655 0.34885-8.1461-0.0316-16.567-0.0928-18.713-0.13601zm57.84-83.384c-5.7077-0.12303-10.637-0.33389-10.954-0.46857-0.50818-0.21583-0.57654-0.43151-0.57654-1.819 0-1.8321 0.99331-5.9363 2.0809-8.598 2.9963-7.333 7.6168-12.465 14.19-15.76 2.9468-1.4772 7.3911-2.605 11.274-2.8609 2.1227-0.13992 34.431 0.29104 34.979 0.46658 0.74601 0.23896 0.87946 1.2276 0.42934 3.1809-0.21945 0.95231-0.47406 2.1388-0.5658 2.6365-1.0283 5.58-4.1843 11.204-8.6218 15.365-4.604 4.3166-9.0828 6.5208-15.556 7.656-3.2901 0.57698-7.7117 0.61037-26.679 0.20149z" fill="url(#a)" stroke="#ffbf5f" stroke-width=".54969"/>
</svg>
