<?xml version="1.0" encoding="UTF-8" standalone="no"?>
<!-- Created with Inkscape (http://www.inkscape.org/) -->

<svg
   width="210mm"
   height="297mm"
   viewBox="0 0 210 297"
   version="1.1"
   id="svg8"
   sodipodi:docname="branding.svg"
   inkscape:export-filename="../png/branding.png"
   inkscape:export-xdpi="96"
   inkscape:export-ydpi="96"
   inkscape:version="1.2.2 (1:1.2.2+202212051552+b0a8486541)"
   xmlns:inkscape="http://www.inkscape.org/namespaces/inkscape"
   xmlns:sodipodi="http://sodipodi.sourceforge.net/DTD/sodipodi-0.dtd"
   xmlns:xlink="http://www.w3.org/1999/xlink"
   xmlns="http://www.w3.org/2000/svg"
   xmlns:svg="http://www.w3.org/2000/svg"
   xmlns:rdf="http://www.w3.org/1999/02/22-rdf-syntax-ns#"
   xmlns:cc="http://creativecommons.org/ns#"
   xmlns:dc="http://purl.org/dc/elements/1.1/">
  <defs
     id="defs2">
    <linearGradient
       inkscape:collect="always"
       id="linearGradient852">
      <stop
         style="stop-color:#aa6600;stop-opacity:1;"
         offset="0"
         id="stop848" />
      <stop
         id="stop981"
         offset="0.34829727"
         style="stop-color:#926018;stop-opacity:1" />
      <stop
         id="stop856"
         offset="0.49489704"
         style="stop-color:#ffbc5f;stop-opacity:1" />
      <stop
         style="stop-color:#a36107;stop-opacity:1"
         offset="0.69327426"
         id="stop983" />
      <stop
         style="stop-color:#aa6600;stop-opacity:1"
         offset="1"
         id="stop850" />
    </linearGradient>
    <linearGradient
       inkscape:collect="always"
       id="linearGradient6491">
      <stop
         style="stop-color:#ffd591;stop-opacity:1"
         offset="0"
         id="stop6487" />
      <stop
         id="stop6495"
         offset="0.35874248"
         style="stop-color:#9a5f00;stop-opacity:1" />
      <stop
         id="stop6499"
         offset="0.70013326"
         style="stop-color:#9a5f00;stop-opacity:1" />
      <stop
         style="stop-color:#ffd591;stop-opacity:1"
         offset="0.89686888"
         id="stop6501" />
      <stop
         style="stop-color:#9a5f00;stop-opacity:1"
         offset="1"
         id="stop6489" />
    </linearGradient>
    <linearGradient
       id="linearGradient6475"
       inkscape:swatch="solid">
      <stop
         style="stop-color:#e7dba9;stop-opacity:1;"
         offset="0"
         id="stop6473" />
    </linearGradient>
    <linearGradient
       inkscape:collect="always"
       xlink:href="#linearGradient6491"
       id="linearGradient6503"
       gradientUnits="userSpaceOnUse"
       x1="12.881036"
       y1="43.366547"
       x2="200.91679"
       y2="228.9342"
       gradientTransform="matrix(0.41312867,0,0,0.41692883,61.804685,69.257811)" />
    <linearGradient
       inkscape:collect="always"
       xlink:href="#linearGradient852"
       id="linearGradient854"
       x1="19.955143"
       y1="240.40488"
       x2="192.72639"
       y2="253.73804"
       gradientUnits="userSpaceOnUse"
       gradientTransform="matrix(2.2688759,0,0,2.2688761,-49.099154,-390.7654)" />
  </defs>
  <sodipodi:namedview
     id="base"
     pagecolor="#ffffff"
     bordercolor="#666666"
     borderopacity="1.0"
     inkscape:pageopacity="0.0"
     inkscape:pageshadow="2"
     inkscape:zoom="0.61516536"
     inkscape:cx="89.406855"
     inkscape:cy="784.34195"
     inkscape:document-units="mm"
     inkscape:current-layer="layer1"
     showgrid="false"
     showguides="false"
     inkscape:window-width="1280"
     inkscape:window-height="1306"
     inkscape:window-x="0"
     inkscape:window-y="27"
     inkscape:window-maximized="0"
     inkscape:showpageshadow="2"
     inkscape:pagecheckerboard="0"
     inkscape:deskcolor="#d1d1d1" />
  <metadata
     id="metadata5">
    <rdf:RDF>
      <cc:Work
         rdf:about="">
        <dc:format>image/svg+xml</dc:format>
        <dc:type
           rdf:resource="http://purl.org/dc/dcmitype/StillImage" />
      </cc:Work>
    </rdf:RDF>
  </metadata>
  <g
     inkscape:label="Layer 1"
     inkscape:groupmode="layer"
     id="layer1">
    <path
       inkscape:connector-curvature="0"
       id="path4722"
       d="m 102.14174,165.65037 c -2.386534,-0.25879 -2.931064,-0.35879 -5.731538,-1.05246 -3.585257,-0.88807 -7.33416,-2.47888 -10.725519,-4.55126 -8.416945,-5.1434 -14.879667,-14.11027 -17.512818,-24.29859 -0.868789,-3.36156 -1.341264,-7.92846 -1.137055,-10.99058 0.278176,-4.17119 0.678532,-6.59915 1.605932,-9.73922 1.260746,-4.26874 3.893027,-9.40591 6.569211,-12.8205 4.81612,-6.144956 10.904503,-10.531942 18.241437,-13.143917 2.998657,-1.067534 7.10994,-1.945678 9.84809,-2.103508 1.26999,-0.0732 1.38388,-0.0615 1.49617,0.15402 0.0669,0.12828 0.32782,5.617127 0.40232,7.275968 0.12159,2.707625 0.11794,3.033742 -0.0356,3.188772 -0.11832,0.1194 -0.75482,0.24934 -2.06294,0.421137 -3.763941,0.494337 -5.544972,0.979724 -8.562757,2.333618 -4.770276,2.14013 -8.997406,5.80307 -11.874788,10.28986 -1.650135,2.57312 -2.544419,4.40201 -3.331978,6.8142 -0.886219,2.7144 -1.213921,4.78136 -1.315679,8.29861 -0.11713,4.04866 0.522261,7.70812 1.937054,11.0864 1.678809,4.0087 3.337625,6.58628 6.061158,9.41829 2.206079,2.29392 3.633757,3.4189 6.385061,5.03127 2.589693,1.51767 4.385155,2.24993 7.443769,3.03587 2.6796,0.68854 6.34842,1.01698 8.71722,0.78039 3.66677,-0.36623 6.37154,-1.05096 9.24283,-2.3399 3.63524,-1.63187 6.19543,-3.40802 9.04298,-6.27358 3.94507,-3.97006 6.42329,-8.67687 7.57959,-14.39578 0.40369,-1.99663 0.69917,-6.5307 0.44159,-6.77635 -0.0553,-0.0528 -4.06028,-0.153 -8.89984,-0.22269 -18.58328,-0.26758 -20.15594,-0.30782 -21.53444,-0.55106 -2.06333,-0.36407 -3.34163,-0.88192 -5.128922,-2.07777 -2.753297,-1.84219 -4.632933,-4.73829 -5.361984,-8.26161 -0.289637,-1.39974 -0.296057,-2.31369 -0.0169,-2.4031 0.11183,-0.0358 3.124604,0.01 6.695046,0.10115 7.16322,0.18348 15.43778,0.35653 23.70758,0.49583 5.87014,0.0989 9.53581,0.24819 11.80226,0.99204 4.1049,1.34724 7.76258,3.55297 8.90327,7.74211 0.56877,2.08875 0.67028,3.06337 0.58097,5.57835 -0.0941,2.65166 -0.3471,5.3772 -0.61832,6.66267 -0.0999,0.47365 -0.29878,1.4148 -0.44186,2.09144 -0.69498,3.28635 -2.12734,6.94293 -4.19267,10.70321 -1.50675,2.74328 -4.2519,6.29034 -6.80433,8.79204 -3.59889,3.52736 -8.62998,6.65647 -13.61555,8.46827 -3.60199,1.30899 -5.53508,1.7855 -9.14282,2.25377 -1.84845,0.23991 -6.41051,0.23601 -8.65519,-0.008 z m -6.861768,-23.01824 c -1.544082,-0.0311 -1.673222,-0.0498 -1.78363,-0.25798 -0.247696,-0.46709 0.322203,-2.8744 1.11118,-4.69374 1.135558,-2.61852 3.283844,-4.89791 5.834878,-6.19095 1.86901,-0.94733 3.49867,-1.29829 6.52905,-1.40603 2.23308,-0.0794 13.17035,0.097 13.4468,0.21687 0.57394,0.24886 -0.10984,3.46148 -1.19784,5.62788 -1.68506,3.35519 -4.87278,5.73651 -8.85265,6.61316 -0.67237,0.1481 -1.7052,0.16974 -7.10496,0.14882 -3.475024,-0.0135 -7.067298,-0.0396 -7.982828,-0.0581 z M 119.9537,107.06184 c -2.43482,-0.0525 -4.53761,-0.14243 -4.67287,-0.19988 -0.21679,-0.0921 -0.24595,-0.18408 -0.24595,-0.77596 0,-0.78154 0.42373,-2.53235 0.8877,-3.6678 1.27819,-3.128164 3.24921,-5.317182 6.05329,-6.722833 1.25707,-0.630147 3.15294,-1.111234 4.80951,-1.220414 0.90551,-0.0597 14.68784,0.12415 14.92163,0.19904 0.31825,0.101927 0.37517,0.523677 0.18315,1.356901 -0.0936,0.406247 -0.20222,0.912354 -0.24136,1.124714 -0.43868,2.380345 -1.78497,4.779522 -3.67796,6.554312 -1.964,1.84139 -3.87462,2.7817 -6.63605,3.26597 -1.40353,0.24613 -3.28971,0.26038 -11.38109,0.086 z"
       style="opacity:1;fill:url(#linearGradient6503);fill-opacity:1;stroke:#ffbf5f;stroke-width:0.234622;stroke-miterlimit:4;stroke-dasharray:none;stroke-opacity:1"
       sodipodi:nodetypes="cssccssssccccsccssssssssscscccccssccccssssccccssscscscccscccccccsc" />
    <flowRoot
       xml:space="preserve"
       id="flowRoot6575"
       style="font-style:normal;font-weight:normal;font-size:40px;line-height:1.25;font-family:sans-serif;letter-spacing:0px;word-spacing:0px;fill:#000000;fill-opacity:1;stroke:none"><flowRegion
         id="flowRegion6577"><rect
           id="rect6579"
           width="221.07877"
           height="130.04634"
           x="180.43929"
           y="946.95715" /></flowRegion><flowPara
         id="flowPara6581" /></flowRoot>
    <text
       xml:space="preserve"
       style="font-style:normal;font-weight:normal;font-size:38.0665px;line-height:1.25;font-family:sans-serif;letter-spacing:0px;word-spacing:0px;fill:url(#linearGradient854);fill-opacity:1;stroke:#ffbf5f;stroke-width:1.24788;stroke-miterlimit:4;stroke-dasharray:none;stroke-opacity:1"
       x="194.8082"
       y="190.02132"
       id="text6585"
       transform="scale(0.6780019,1.4749221)"><tspan
         sodipodi:role="line"
         id="tspan6583"
         x="194.8082"
         y="190.02132"
         style="font-style:normal;font-variant:normal;font-weight:normal;font-stretch:normal;font-size:50.7552px;font-family:Righteous;-inkscape-font-specification:Righteous;font-variant-ligatures:normal;font-variant-caps:normal;font-variant-numeric:normal;font-feature-settings:normal;text-align:center;writing-mode:lr-tb;text-anchor:middle;fill:url(#linearGradient854);fill-opacity:1;stroke:#ffbf5f;stroke-width:1.24788;stroke-miterlimit:4;stroke-dasharray:none;stroke-opacity:1">Stunners Galleria</tspan></text>
  </g>
</svg>
